HIERARCHY
ROOT hip
{
	OFFSET 0.000000 0.000000 0.000000 
	CHANNELS 6 Xposition Yposition Zposition Xrotation Zrotation Yrotation
	JOINT abdomen
	{
		OFFSET 0.000000 3.402643 0.000000 
		CHANNELS 3 Xrotation Zrotation Yrotation
		JOINT chest
		{
			OFFSET 0.000000 8.438565 -0.680529 
			CHANNELS 3 Xrotation Zrotation Yrotation
			JOINT neck
			{
				OFFSET 0.000000 10.207942 -0.272212 
				CHANNELS 3 Xrotation Zrotation Yrotation
				JOINT head
				{
					OFFSET 0.000000 3.130431 0.000000 
					CHANNELS 3 Xrotation Zrotation Yrotation
					End Site
					{
						OFFSET 0.000000 3.130435 0.000000 
					}
				}
			}
			JOINT lCollar
			{
				OFFSET 3.470700 6.669187 -0.816635 
				CHANNELS 3 Yrotation Zrotation Xrotation
				JOINT lShldr
				{
					OFFSET 3.198488 0.000000 0.000000 
					CHANNELS 3 Zrotation Yrotation Xrotation
					JOINT lForeArm
					{
						OFFSET 10.139888 0.000000 0.000000 
						CHANNELS 3 Yrotation Zrotation Xrotation
						JOINT lHand
						{
							OFFSET 8.370511 0.000000 0.000000 
							CHANNELS 3 Zrotation Yrotation Xrotation
							End Site
							{
								OFFSET 4.083176 0.000000 0.000000 
							}
						}
					}
				}
			}
			JOINT rCollar
			{
				OFFSET -3.470700 6.669187 -0.816635 
				CHANNELS 3 Yrotation Zrotation Xrotation
				JOINT rShldr
				{
					OFFSET -3.198488 0.000000 0.000000 
					CHANNELS 3 Zrotation Yrotation Xrotation
					JOINT rForeArm
					{
						OFFSET -10.139888 0.000000 0.000000 
						CHANNELS 3 Yrotation Zrotation Xrotation
						JOINT rHand
						{
							OFFSET -8.370511 0.000000 0.000000 
							CHANNELS 3 Zrotation Yrotation Xrotation
							End Site
							{
								OFFSET -4.083176 0.000000 0.000000 
							}
						}
					}
				}
			}
		}
	}
	JOINT lThigh
	{
		OFFSET 5.308129 -1.633274 1.361059 
		CHANNELS 3 Xrotation Zrotation Yrotation
		JOINT lShin
		{
			OFFSET -2.041588 -20.007561 0.000000 
			CHANNELS 3 Xrotation Zrotation Yrotation
			JOINT lFoot
			{
				OFFSET 0.000000 -19.190928 -1.224953 
				CHANNELS 3 Xrotation Yrotation Zrotation
				End Site
				{
					OFFSET 0.000000 -2.449906 4.627600 
				}
			}
		}
	}
	JOINT rThigh
	{
		OFFSET -5.308129 -1.633274 1.361059 
		CHANNELS 3 Xrotation Zrotation Yrotation
		JOINT rShin
		{
			OFFSET 2.041588 -20.007561 0.000000 
			CHANNELS 3 Xrotation Zrotation Yrotation
			JOINT rFoot
			{
				OFFSET 0.000000 -19.190928 -1.224953 
				CHANNELS 3 Xrotation Yrotation Zrotation
				End Site
				{
					OFFSET 0.000000 -2.449906 4.627600 
				}
			}
		}
	}
}
MOTION
Frames: 16
Frame Time: 0.033333
6.190946 49.948158 -2.788896 -21.533203 -10.917969 -166.984268 10.566406 -3.359375 -1.855469 6.113281 -4.902344 5.214009 38.662109 -10.556642 -0.976563 -38.007813 1.455078 15.830078 23.291018 30.000000 11.528320 -87.529297 14.238280 20.488281 -69.677734 9.482423 1.865234 25.400391 -18.457033 -14.612468 -0.810547 -29.785215 23.686453 29.960939 15.048828 90.656837 -17.714846 -5.439454 -93.457031 3.564453 -13.154297 -46.962894 -72.122353 4.159552 5.923869 71.188957 -8.101129 -4.836794 29.216793 -22.428965 -10.825864 -45.064468 -15.819271 -1.718910 60.582569 -1.210788 4.339079 13.498675 -16.849747 17.176950 
4.999387 50.308308 -2.834756 157.226563 -165.595703 7.624523 10.566406 -3.359375 -1.855469 5.156250 -7.314454 4.736328 37.568359 -11.445313 -1.035156 -38.261719 1.640625 19.189453 22.216797 30.000000 11.987306 -85.292969 15.634764 20.273438 -66.679688 13.115233 -4.160156 27.587891 -18.339846 -15.019533 -3.369141 -30.000000 22.167971 25.507814 13.027344 88.156502 -17.871092 -4.697266 -93.465996 2.421875 -12.636719 -47.873234 -75.292519 4.482656 5.064342 74.008842 -8.671279 -5.073743 30.320122 -24.857956 -13.467105 -47.472057 -16.549831 -1.800723 58.871319 4.618783 5.428077 13.662685 -11.866902 15.869234 
3.672237 50.229321 -3.091355 157.900391 -162.060547 0.377851 10.566406 -3.359375 -1.855469 4.960938 -8.632813 4.461425 36.845703 -13.466798 -1.191406 -37.734379 2.880859 21.415848 22.968752 29.316404 12.046000 -81.699219 17.773438 19.853514 -62.294926 15.253906 -9.013672 29.531252 -17.929688 -15.061599 -3.583984 -30.000000 21.723633 22.529297 11.689452 86.349632 -19.169922 -2.968750 -96.073715 1.787109 -14.111328 -48.684017 -75.227600 5.204162 5.303442 74.083275 -7.135774 -4.707978 31.745018 -27.883568 -5.955327 -47.454170 -16.628536 -1.840529 58.281322 11.610127 6.975296 16.820740 -14.776317 20.854959 
2.302406 49.882015 -3.590730 -19.287109 -21.923830 171.783463 10.566406 -3.359375 -1.855469 5.625000 -10.000001 4.158460 37.128906 -17.187500 -1.474609 -38.144531 6.572266 24.102680 24.814453 26.064453 12.304688 -77.578125 19.335938 19.065733 -56.640625 15.996095 -16.037846 31.757814 -17.255857 -15.364223 -3.037110 -30.000000 21.728516 19.023438 10.976563 83.800690 -21.552734 -1.708984 -96.249710 1.972656 -15.117188 -48.137314 -72.505081 5.663636 6.235061 73.304070 -5.006586 -4.177144 29.063675 -27.804699 -9.448802 -43.865273 -17.196686 -2.241489 55.409451 17.255861 7.993509 21.640711 -25.258640 26.128508 
0.966339 49.141220 -4.333579 -17.080078 -27.177734 164.082031 10.566406 -3.359375 -1.855469 3.496094 -12.626954 3.689271 38.613281 -20.000002 -1.712324 -38.388672 8.671875 25.860847 25.664064 22.949219 13.198538 -73.857422 21.210939 18.359375 -50.488281 16.777344 -23.371960 33.291016 -16.259766 -15.341797 -1.884766 -30.000000 22.299807 14.394531 9.775391 80.333687 -22.314453 -0.273438 -99.023438 1.494141 -14.492187 -47.961426 -70.361473 4.763826 6.587047 71.161316 -3.903147 -3.871032 27.365818 -24.687607 -6.892449 -40.455723 -20.164265 -3.437086 52.416817 22.322807 8.941661 13.197060 -29.994591 17.174940 
-0.291381 48.114681 -5.098956 -13.564453 -31.191404 155.126953 10.566406 -3.359375 -1.855469 1.894531 -13.857422 3.483989 38.583984 -23.701174 -2.015645 -37.988277 10.185547 28.507587 27.412109 20.205080 13.662108 -71.064453 22.783203 17.816282 -44.101563 16.406252 -29.348463 34.765625 -15.673827 -15.412793 -2.011719 -30.000000 21.997072 9.521484 10.078125 76.093750 -23.994141 -0.498047 -101.757729 0.957031 -19.062500 -48.421158 -67.536598 4.023421 7.220889 67.785866 -1.558225 -3.224538 26.974619 -20.562256 -8.531486 -40.770699 -20.273180 -3.433594 54.575829 18.826960 8.279638 4.962269 -22.314190 17.388336 
-1.475678 47.119263 -5.913111 -9.687501 -31.054688 144.414063 10.566406 -3.359375 -1.855469 1.845703 -10.781250 4.111329 38.310547 -27.841797 -2.367842 -37.402344 11.699219 31.201176 28.671873 18.740234 13.837891 -71.591797 25.068359 18.842030 -37.753910 16.201174 -37.333981 35.839844 -16.132813 -16.191406 0.439453 -30.000000 23.671877 3.652344 9.072266 71.280838 -24.648438 0.234375 -105.693398 -1.787109 -22.988279 -49.619137 -63.492741 4.189089 8.403966 63.357014 4.468185 -1.708398 25.611364 -15.087015 -12.729240 -40.931129 -17.682852 -2.569345 58.262054 13.650843 7.432957 -2.189430 -8.791184 17.167297 
-2.232226 46.252453 -6.582603 -9.042969 -27.939453 135.253906 10.566406 -3.359375 -1.855469 1.826172 -5.498017 5.204171 37.001953 -28.505861 -2.402343 -36.191406 12.900391 34.794922 28.281248 22.255859 12.246094 -76.269531 30.175783 22.705076 -32.978516 16.142576 -42.949223 35.781250 -13.671874 -14.367540 -1.943359 -30.000000 21.938477 -5.224609 10.380859 63.644337 -23.232422 -0.908203 -106.718750 -4.501954 -27.441404 -51.083977 -60.917049 6.620846 9.776467 58.638699 10.717164 -0.165699 22.860409 -8.639885 -8.925678 -39.946781 -11.249213 -0.567153 58.491440 12.294209 7.156093 -9.316290 -6.525702 10.902260 
-2.736648 45.709919 -7.218700 -6.933594 -26.650391 130.015152 10.566406 -3.359375 -1.855469 2.080078 -4.667969 5.380859 36.806641 -24.052734 -2.021485 -35.166016 11.445313 36.105453 24.736330 30.000000 10.668945 -83.046875 34.257813 26.611328 -30.859371 15.976563 -46.184330 31.874996 -8.925781 -10.478517 -5.859375 -30.000000 19.350588 -11.074218 10.898437 58.956928 -21.679688 -3.681641 -106.152344 -6.103516 -31.777342 -51.914063 -59.142521 5.017643 9.804379 53.148853 11.725010 0.311350 19.957123 -2.223494 1.632487 -37.531002 -8.592147 0.099165 57.056854 10.712620 6.686326 -14.309437 -8.633967 8.892374 
-3.233489 45.873970 -7.842781 -4.521484 -26.191406 125.610924 10.566406 -3.359375 -1.855469 2.392578 -4.609375 5.389840 37.695313 -20.576170 -1.748047 -34.960941 10.166015 35.048824 22.021484 30.000000 10.756838 -86.757813 35.195313 27.794867 -31.298826 15.810546 -48.889381 33.818359 -7.617188 -9.679028 -10.791015 -30.000000 16.088869 -16.650391 14.003906 54.570313 -20.039063 -4.189453 -103.134766 -7.988281 -32.158203 -52.153637 -58.768047 2.421912 9.204496 46.800919 9.503204 0.116160 22.823090 -5.102613 1.157976 -35.819740 -7.001678 0.493289 55.230354 7.472240 5.773149 -16.359697 -10.932120 6.128802 
-3.728401 46.695370 -8.573786 -0.732422 -26.679689 118.906242 10.566406 -3.359375 -1.855469 3.173828 -5.419922 5.195312 37.646488 -20.849609 -1.761288 -34.892578 10.214845 33.927509 21.660156 30.000000 11.123049 -86.406250 35.908199 28.144531 -32.988285 15.566406 -47.148441 35.048828 -8.476563 -9.649878 -10.644532 -30.000000 16.289064 -21.875000 15.136719 50.859379 -20.468750 -3.808594 -105.917801 -8.398438 -33.886719 -52.929688 -59.715149 -0.107314 8.266941 41.060230 5.637405 -0.451688 25.726480 -10.895230 -1.103778 -34.875717 -6.834493 0.482903 53.674973 2.677614 4.552153 -10.710192 -6.292175 8.272436 
-4.378406 47.890583 -9.447893 4.570313 -27.822268 109.848953 10.566406 -3.359375 -1.855469 3.828125 -7.011719 4.832793 37.285156 -23.662109 -1.992188 -35.468754 11.064452 32.851559 22.597654 30.000000 11.611328 -84.169922 36.972656 28.417969 -35.595703 14.726563 -45.195309 34.013672 -8.896484 -9.044478 -7.324218 -30.000000 18.432617 -27.490232 16.259766 47.123184 -22.978516 -2.128906 -107.841431 -7.851563 -34.033203 -52.968754 -62.400608 -2.675308 6.857007 35.475567 2.738233 -0.819423 27.277824 -16.314264 -2.062874 -38.858097 -8.630878 0.134465 56.192955 -0.642499 4.078969 -2.068050 -1.588231 5.317800 
-4.892158 48.964146 -10.407969 10.419922 -26.914063 98.022919 10.566406 -3.359375 -1.855469 5.722657 -8.457032 4.471220 35.009766 -28.583984 -2.407016 -36.250004 13.525391 33.310547 26.054689 25.888672 11.694957 -80.507805 38.261719 28.550972 -36.708981 14.072266 -43.918388 32.246094 -9.560546 -8.507480 0.468750 -30.000000 23.735374 -32.343750 16.337889 44.133606 -27.304688 0.498047 -107.773544 -7.880859 -31.406248 -52.290245 -64.082451 -2.666360 6.388147 30.571148 1.629252 -0.792787 22.049759 -20.299284 -1.413827 -44.040085 -9.511039 0.181912 60.181480 -0.906839 4.357921 12.864193 -4.036850 5.863416 
-5.161032 49.651432 -11.484111 15.000000 -25.683594 88.355141 10.566406 -3.359375 -1.855469 6.181641 -9.189452 4.306641 33.554688 -31.513670 -2.646486 -36.064453 15.185548 34.003906 27.607422 21.093750 13.134767 -77.343750 39.628906 28.789063 -38.066406 13.046876 -45.234371 32.080082 -11.386720 -9.093724 8.388673 -30.000000 25.000000 -38.593750 15.058595 40.686131 -30.761717 0.419922 -105.810623 -7.578125 -27.851564 -51.748047 -67.059914 -2.998310 5.481822 28.228796 1.151010 -0.815492 15.957923 -17.783607 -5.539979 -47.639244 -12.908424 -0.640076 60.207150 5.565893 5.778952 12.039794 -14.808294 15.690103 
-5.159330 49.989761 -12.530604 21.533201 -21.591795 79.121094 10.566406 -3.359375 -1.855469 8.320313 -12.890625 3.464618 32.773441 -33.515625 -2.847188 -36.718754 17.265625 33.857422 28.828125 17.763672 14.267578 -76.123047 40.019535 28.756281 -38.535156 12.724610 -45.939655 31.416016 -10.136718 -7.880860 14.228516 -30.000000 25.000000 -46.005859 15.712892 36.799522 -33.154293 0.439453 -107.880936 -6.777344 -23.613281 -52.197262 -66.976288 -4.092127 5.221156 25.511755 -0.137934 -0.924886 13.576175 -12.641493 -7.643179 -45.685341 -17.711636 -2.309608 53.637371 12.987395 6.836757 7.073743 -24.293972 18.608891 
-4.746033 49.591507 -13.564245 24.072268 -18.769533 70.211700 10.566406 -3.359375 -1.855469 6.494140 -12.148437 3.691406 33.310547 -37.011719 -3.203124 -36.201172 19.550781 34.925148 31.259768 14.785155 14.977977 -73.837891 42.812504 30.504684 -39.638676 11.474609 -47.782253 29.980467 -10.468750 -7.578125 23.896484 -30.000000 25.000000 -53.144531 18.271484 33.049938 -36.455078 0.683594 -108.330078 -7.089844 -20.224609 -52.744137 -68.887451 -2.568876 5.066068 25.242466 0.555371 -0.771857 15.470355 -15.105805 -9.884492 -44.136383 -19.216780 -2.909208 49.079605 21.034592 8.278069 9.483147 -31.377005 26.536142 
